<svg width="10" height="7" viewBox="0 0 10 7" fill="none" xmlns="http://www.w3.org/2000/svg">
<path d="M5.15213 4.35366C5.15213 3.58353 4.78582 3.01427 4.02902 2.8009C4.5812 2.53793 4.86917 2.13953 4.86917 1.51984C4.86917 0.297968 3.95568 0 2.90175 0H0V6.1348H2.98301C4.10154 6.1348 5.15213 5.60013 5.15213 4.35366ZM1.35273 1.04726H2.62212C3.11012 1.04726 3.54936 1.18395 3.54936 1.74822C3.54936 2.26914 3.20763 2.47876 2.72422 2.47876H1.35273V1.04726ZM1.35232 5.09296V3.4035H2.82673C3.42225 3.4035 3.79898 3.65104 3.79898 4.27948C3.79898 4.89917 3.34932 5.09296 2.79881 5.09296H1.35232Z" fill="#5C6168"/>
<path d="M7.83296 6.25108C8.89731 6.25108 9.58659 5.77308 9.91831 4.75708H8.83813C8.72186 5.13631 8.24261 5.33676 7.87088 5.33676C7.15367 5.33676 6.77694 4.91794 6.77694 4.20615H9.99124C10.0929 2.78174 9.29946 1.56778 7.83254 1.56778C6.47439 1.56778 5.55257 2.58545 5.55257 3.9186C5.55257 5.30217 6.42605 6.25108 7.83296 6.25108V6.25108ZM7.79462 2.4896C8.40931 2.4896 8.71853 2.84967 8.7702 3.43852H6.77861C6.81903 2.85467 7.20785 2.4896 7.79462 2.4896Z" fill="#5C6168"/>
<path d="M6.52913 0.322052H9.02456V0.926322H6.52913V0.322052Z" fill="#5C6168"/>
</svg>
