<svg width="7" height="10" viewBox="0 0 7 10" fill="none" xmlns="http://www.w3.org/2000/svg">
<path fill-rule="evenodd" clip-rule="evenodd" d="M2.7273 8.63636H3.63639C3.8873 8.63636 4.09093 8.43272 4.09093 8.18181C4.09093 7.9309 3.8873 7.72726 3.63639 7.72726H2.7273C2.47639 7.72726 2.27275 7.9309 2.27275 8.18181C2.27275 8.43272 2.47639 8.63636 2.7273 8.63636Z" fill="#5C6168"/>
<path fill-rule="evenodd" clip-rule="evenodd" d="M6.36364 1.36364C6.36364 1.00182 6.22 0.655 5.96409 0.399545C5.70864 0.143636 5.36182 0 5 0C3.99091 0 2.37273 0 1.36364 0C1.00182 0 0.655 0.143636 0.399546 0.399545C0.143636 0.655 0 1.00182 0 1.36364V8.63636C0 8.99818 0.143636 9.345 0.399546 9.60045C0.655 9.85636 1.00182 10 1.36364 10H5C5.36182 10 5.70864 9.85636 5.96409 9.60045C6.22 9.345 6.36364 8.99818 6.36364 8.63636V1.36364ZM5.45455 1.36364V8.63636C5.45455 8.75682 5.40682 8.87273 5.32136 8.95773C5.23636 9.04318 5.12045 9.09091 5 9.09091C3.99091 9.09091 2.37273 9.09091 1.36364 9.09091C1.24318 9.09091 1.12727 9.04318 1.04227 8.95773C0.956818 8.87273 0.909091 8.75682 0.909091 8.63636C0.909091 6.89455 0.909091 3.10545 0.909091 1.36364C0.909091 1.24318 0.956818 1.12727 1.04227 1.04227C1.12727 0.956818 1.24318 0.909091 1.36364 0.909091H5C5.12045 0.909091 5.23636 0.956818 5.32136 1.04227C5.40682 1.12727 5.45455 1.24318 5.45455 1.36364Z" fill="#5C6168"/>
</svg>
