<svg width="10" height="10" viewBox="0 0 10 10" fill="none" xmlns="http://www.w3.org/2000/svg">
<path d="M5 0C2.24297 0 0 2.24297 0 4.99995C0 7.75692 2.24297 9.99989 5 9.99989C7.75703 9.99989 10 7.75692 10 4.99995C10 2.24297 7.75703 0 5 0ZM8.2583 2.35809C8.81962 3.04903 9.1652 3.92114 9.19394 4.87182C8.15415 4.65656 7.21262 4.68182 6.38146 4.84479C6.23096 4.49284 6.07516 4.15754 5.91792 3.84065C6.82311 3.4507 7.61113 2.95265 8.2583 2.35809ZM7.69505 1.78564C7.05265 2.37201 6.30819 2.80616 5.5459 3.12669C4.98641 2.10355 4.4511 1.33308 4.125 0.895229C4.40737 0.835073 4.69997 0.8028 5 0.8028C6.02528 0.8028 6.96536 1.17284 7.69505 1.78564ZM3.31417 1.15742C3.56042 1.47651 4.14694 2.27546 4.77698 3.41217C3.19354 3.92805 1.65709 4.01496 0.918778 4.02305C1.22652 2.73749 2.12678 1.68042 3.31417 1.15742ZM0.807189 4.82788C0.81511 4.82788 0.822763 4.82793 0.830845 4.82793C1.341 4.82793 2.27567 4.79363 3.37604 4.59298C4.00383 4.4785 4.59914 4.32442 5.15772 4.13346C5.30314 4.42327 5.44769 4.72897 5.58786 5.0494C4.80572 5.30121 4.14614 5.66354 3.62368 6.0233C2.74756 6.62663 2.13379 7.29601 1.79865 7.70988C1.17814 6.9781 0.8028 6.03229 0.8028 4.99995C0.8028 4.94225 0.804834 4.88504 0.807189 4.82788ZM2.37714 8.27318C2.66567 7.90988 3.25295 7.24864 4.10247 6.66843C4.67979 6.2741 5.27707 5.98113 5.89196 5.78883C6.24873 6.71355 6.55331 7.7353 6.7349 8.8202C6.2057 9.06147 5.61858 9.19709 5 9.19709C4.00817 9.19709 3.09624 8.85055 2.37714 8.27318ZM7.47348 8.38792C7.28632 7.39154 7.00721 6.45467 6.68454 5.59846C7.47824 5.46455 8.29855 5.49217 9.14106 5.68142C8.95936 6.78875 8.34318 7.75125 7.47348 8.38792Z" fill="#5C6168"/>
</svg>
