<svg width="8" height="8" viewBox="0 0 8 8" fill="none" xmlns="http://www.w3.org/2000/svg">
<path d="M7.99988 7.99988V5.06988C7.99988 3.62988 7.68988 2.52988 6.00988 2.52988C5.19988 2.52988 4.65988 2.96988 4.43988 3.38988H4.41988V2.65988H2.82988V7.99988H4.48988V5.34988C4.48988 4.64988 4.61988 3.97988 5.47988 3.97988C6.32988 3.97988 6.33988 4.76988 6.33988 5.38988V7.98988H7.99988V7.99988Z" fill="#5C6168"/>
<path d="M0.130066 2.65997H1.79007V7.99997H0.130066V2.65997Z" fill="#5C6168"/>
<path d="M0.96 0C0.43 0 0 0.43 0 0.96C0 1.49 0.43 1.93 0.96 1.93C1.49 1.93 1.92 1.49 1.92 0.96C1.92 0.43 1.49 0 0.96 0V0Z" fill="#5C6168"/>
</svg>
